<?xml version="1.0" encoding="UTF-8" standalone="no"?>
<svg xmlns="http://www.w3.org/2000/svg" width="800" height="500" viewBox="0 0 800 500">
  <rect width="800" height="500" fill="#ffffff" />
  
  <!-- Title -->
  <text x="400" y="50" font-family="Arial" font-size="24" font-weight="bold" text-anchor="middle" fill="#212529">Data Integration Flow</text>
  
  <!-- Data Sources -->
  <rect x="50" y="100" width="150" height="60" rx="10" fill="#e3e9ff" stroke="#4a6cf7" stroke-width="2" />
  <text x="125" y="135" font-family="Arial" font-size="16" font-weight="bold" text-anchor="middle" fill="#212529">CloudWatch Logs</text>
  
  <rect x="50" y="180" width="150" height="60" rx="10" fill="#e3e9ff" stroke="#4a6cf7" stroke-width="2" />
  <text x="125" y="215" font-family="Arial" font-size="16" font-weight="bold" text-anchor="middle" fill="#212529">Application Logs</text>
  
  <rect x="50" y="260" width="150" height="60" rx="10" fill="#e3e9ff" stroke="#4a6cf7" stroke-width="2" />
  <text x="125" y="295" font-family="Arial" font-size="16" font-weight="bold" text-anchor="middle" fill="#212529">System Logs</text>
  
  <rect x="50" y="340" width="150" height="60" rx="10" fill="#e3e9ff" stroke="#4a6cf7" stroke-width="2" />
  <text x="125" y="375" font-family="Arial" font-size="16" font-weight="bold" text-anchor="middle" fill="#212529">CloudWatch Metrics</text>
  
  <rect x="50" y="420" width="150" height="60" rx="10" fill="#e3e9ff" stroke="#4a6cf7" stroke-width="2" />
  <text x="125" y="455" font-family="Arial" font-size="16" font-weight="bold" text-anchor="middle" fill="#212529">Dashboards</text>
  
  <!-- Processing Pipeline -->
  <rect x="300" y="100" width="200" height="380" rx="10" fill="#f8f9fa" stroke="#212529" stroke-width="2" />
  <text x="400" y="130" font-family="Arial" font-size="18" font-weight="bold" text-anchor="middle" fill="#212529">Data Processing</text>
  
  <!-- Log Processing -->
  <rect x="325" y="150" width="150" height="80" rx="5" fill="#4a6cf7" opacity="0.7" />
  <text x="400" y="180" font-family="Arial" font-size="14" font-weight="bold" text-anchor="middle" fill="white">Log Processing</text>
  <text x="400" y="200" font-family="Arial" font-size="12" text-anchor="middle" fill="white">Parsing and Normalization</text>
  
  <!-- Metrics Processing -->
  <rect x="325" y="250" width="150" height="80" rx="5" fill="#4a6cf7" opacity="0.7" />
  <text x="400" y="280" font-family="Arial" font-size="14" font-weight="bold" text-anchor="middle" fill="white">Metrics Processing</text>
  <text x="400" y="300" font-family="Arial" font-size="12" text-anchor="middle" fill="white">Statistical Analysis</text>
  
  <!-- Dashboard Processing -->
  <rect x="325" y="350" width="150" height="80" rx="5" fill="#4a6cf7" opacity="0.7" />
  <text x="400" y="380" font-family="Arial" font-size="14" font-weight="bold" text-anchor="middle" fill="white">Dashboard Processing</text>
  <text x="400" y="400" font-family="Arial" font-size="12" text-anchor="middle" fill="white">Visual Interpretation</text>
  
  <!-- Analysis Agents -->
  <rect x="600" y="100" width="150" height="80" rx="10" fill="#6c757d" />
  <text x="675" y="145" font-family="Arial" font-size="16" font-weight="bold" text-anchor="middle" fill="white">Log Analysis</text>
  <text x="675" y="165" font-family="Arial" font-size="14" text-anchor="middle" fill="white">Agent</text>
  
  <rect x="600" y="200" width="150" height="80" rx="10" fill="#6c757d" />
  <text x="675" y="245" font-family="Arial" font-size="16" font-weight="bold" text-anchor="middle" fill="white">Metrics Analysis</text>
  <text x="675" y="265" font-family="Arial" font-size="14" text-anchor="middle" fill="white">Agent</text>
  
  <rect x="600" y="300" width="150" height="80" rx="10" fill="#6c757d" />
  <text x="675" y="345" font-family="Arial" font-size="16" font-weight="bold" text-anchor="middle" fill="white">Dashboard</text>
  <text x="675" y="365" font-family="Arial" font-size="14" text-anchor="middle" fill="white">Analysis Agent</text>
  
  <rect x="600" y="400" width="150" height="80" rx="10" fill="#4a6cf7" />
  <text x="675" y="445" font-family="Arial" font-size="16" font-weight="bold" text-anchor="middle" fill="white">Supervisor</text>
  <text x="675" y="465" font-family="Arial" font-size="14" text-anchor="middle" fill="white">Agent</text>
  
  <!-- Connections -->
  <!-- Log sources to processing -->
  <line x1="200" y1="130" x2="300" y2="190" stroke="#212529" stroke-width="1.5" />
  <line x1="200" y1="210" x2="300" y2="190" stroke="#212529" stroke-width="1.5" />
  <line x1="200" y1="290" x2="300" y2="190" stroke="#212529" stroke-width="1.5" />
  
  <!-- Metrics to processing -->
  <line x1="200" y1="370" x2="300" y2="290" stroke="#212529" stroke-width="1.5" />
  
  <!-- Dashboards to processing -->
  <line x1="200" y1="450" x2="300" y2="390" stroke="#212529" stroke-width="1.5" />
  
  <!-- Processing to agents -->
  <line x1="475" y1="190" x2="600" y2="140" stroke="#212529" stroke-width="1.5" />
  <line x1="475" y1="290" x2="600" y2="240" stroke="#212529" stroke-width="1.5" />
  <line x1="475" y1="390" x2="600" y2="340" stroke="#212529" stroke-width="1.5" />
  
  <!-- Agents to supervisor -->
  <line x1="675" y1="180" x2="675" y2="400" stroke="#212529" stroke-width="1.5" stroke-dasharray="5,5" />
  <line x1="675" y1="280" x2="675" y2="400" stroke="#212529" stroke-width="1.5" stroke-dasharray="5,5" />
  <line x1="675" y1="380" x2="675" y2="400" stroke="#212529" stroke-width="1.5" stroke-dasharray="5,5" />
  
  <!-- Data flow arrows -->
  <polygon points="300,190 290,185 290,195" fill="#212529" />
  <polygon points="300,290 290,285 290,295" fill="#212529" />
  <polygon points="300,390 290,385 290,395" fill="#212529" />
  <polygon points="600,140 590,135 590,145" fill="#212529" />
  <polygon points="600,240 590,235 590,245" fill="#212529" />
  <polygon points="600,340 590,335 590,345" fill="#212529" />
  <polygon points="675,400 670,390 680,390" fill="#212529" />
</svg>
