<?xml version="1.0" encoding="UTF-8" standalone="no"?>
<svg xmlns="http://www.w3.org/2000/svg" width="800" height="500" viewBox="0 0 800 500">
  <!-- Background -->
  <rect width="800" height="500" fill="#f8f9fa" />
  
  <!-- Title -->
  <text x="400" y="30" font-family="Arial, sans-serif" font-size="20" font-weight="bold" text-anchor="middle" fill="#333">Database Query Performance Dashboard</text>
  
  <!-- Query Response Time Chart -->
  <g transform="translate(50, 80)">
    <rect x="0" y="0" width="300" height="180" fill="white" stroke="#ddd" stroke-width="1" />
    <text x="150" y="20" font-family="Arial, sans-serif" font-size="14" text-anchor="middle" fill="#333">Query Response Time (ms)</text>
    
    <!-- Chart Axes -->
    <line x1="40" y1="40" x2="40" y2="160" stroke="#999" stroke-width="1" />
    <line x1="40" y1="160" x2="280" y2="160" stroke="#999" stroke-width="1" />
    
    <!-- Chart Data -->
    <polyline points="40,140 80,130 120,135 160,120 200,90 240,40 280,30" fill="none" stroke="#d32f2f" stroke-width="2" />
    <circle cx="240" cy="40" r="5" fill="#d32f2f" />
    <circle cx="280" cy="30" r="5" fill="#d32f2f" />
    
    <!-- Threshold Line -->
    <line x1="40" y1="60" x2="280" y2="60" stroke="#666" stroke-width="1" stroke-dasharray="5,5" />
    <text x="290" y="65" font-family="Arial, sans-serif" font-size="10" fill="#666">SLA (200ms)</text>
  </g>
  
  <!-- Active Connections Chart -->
  <g transform="translate(400, 80)">
    <rect x="0" y="0" width="300" height="180" fill="white" stroke="#ddd" stroke-width="1" />
    <text x="150" y="20" font-family="Arial, sans-serif" font-size="14" text-anchor="middle" fill="#333">Active Database Connections</text>
    
    <!-- Chart Axes -->
    <line x1="40" y1="40" x2="40" y2="160" stroke="#999" stroke-width="1" />
    <line x1="40" y1="160" x2="280" y2="160" stroke="#999" stroke-width="1" />
    
    <!-- Chart Data -->
    <polyline points="40,80 80,85 120,90 160,100 200,120 240,150 280,155" fill="none" stroke="#2196F3" stroke-width="2" />
    
    <!-- Connection Limit -->
    <line x1="40" y1="50" x2="280" y2="50" stroke="#d32f2f" stroke-width="1" stroke-dasharray="5,5" />
    <text x="290" y="55" font-family="Arial, sans-serif" font-size="10" fill="#d32f2f">Max Connections</text>
  </g>
  
  <!-- Query Types Distribution -->
  <g transform="translate(50, 280)">
    <rect x="0" y="0" width="300" height="180" fill="white" stroke="#ddd" stroke-width="1" />
    <text x="150" y="20" font-family="Arial, sans-serif" font-size="14" text-anchor="middle" fill="#333">Query Types Distribution</text>
    
    <!-- Pie Chart -->
    <path d="M150,100 L150,40 A60,60 0 0,1 202,70 Z" fill="#4CAF50" /> <!-- SELECT -->
    <path d="M150,100 L202,70 A60,60 0 0,1 190,140 Z" fill="#2196F3" /> <!-- INSERT -->
    <path d="M150,100 L190,140 A60,60 0 0,1 110,140 Z" fill="#FFC107" /> <!-- UPDATE -->
    <path d="M150,100 L110,140 A60,60 0 0,1 98,70 Z" fill="#9C27B0" /> <!-- DELETE -->
    <path d="M150,100 L98,70 A60,60 0 0,1 150,40 Z" fill="#FF5722" /> <!-- OTHER -->
    
    <!-- Legend -->
    <g transform="translate(0, 140)">
      <rect x="60" y="0" width="10" height="10" fill="#4CAF50" />
      <text x="75" y="10" font-family="Arial, sans-serif" font-size="10" fill="#333">SELECT (45%)</text>
      
      <rect x="60" y="15" width="10" height="10" fill="#2196F3" />
      <text x="75" y="25" font-family="Arial, sans-serif" font-size="10" fill="#333">INSERT (25%)</text>
      
      <rect x="160" y="0" width="10" height="10" fill="#FFC107" />
      <text x="175" y="10" font-family="Arial, sans-serif" font-size="10" fill="#333">UPDATE (20%)</text>
      
      <rect x="160" y="15" width="10" height="10" fill="#9C27B0" />
      <text x="175" y="25" font-family="Arial, sans-serif" font-size="10" fill="#333">DELETE (5%)</text>
    </g>
  </g>
  
  <!-- Slow Queries List -->
  <g transform="translate(400, 280)">
    <rect x="0" y="0" width="300" height="180" fill="white" stroke="#ddd" stroke-width="1" />
    <text x="150" y="20" font-family="Arial, sans-serif" font-size="14" text-anchor="middle" fill="#333">Slow Queries</text>
    
    <!-- List Items -->
    <text x="10" y="45" font-family="monospace" font-size="10" fill="#d32f2f">SELECT * FROM orders WHERE...</text>
    <text x="10" y="60" font-family="Arial, sans-serif" font-size="10" fill="#666">Duration: 2.5s, CPU: 80%</text>
    
    <text x="10" y="85" font-family="monospace" font-size="10" fill="#d32f2f">JOIN products p ON...</text>
    <text x="10" y="100" font-family="Arial, sans-serif" font-size="10" fill="#666">Duration: 1.8s, CPU: 65%</text>
    
    <text x="10" y="125" font-family="monospace" font-size="10" fill="#d32f2f">GROUP BY customer_id...</text>
    <text x="10" y="140" font-family="Arial, sans-serif" font-size="10" fill="#666">Duration: 1.5s, CPU: 45%</text>
  </g>
</svg> 