<?xml version="1.0" encoding="UTF-8" standalone="no"?>
<svg xmlns="http://www.w3.org/2000/svg" width="800" height="500" viewBox="0 0 800 500">
  <!-- Background -->
  <rect width="800" height="500" fill="#f8f9fa" />
  
  <!-- Title -->
  <text x="400" y="30" font-family="Arial, sans-serif" font-size="20" font-weight="bold" text-anchor="middle" fill="#333">JMS Issues Dashboard</text>
  
  <!-- Queue Depth Chart -->
  <g transform="translate(50, 80)">
    <rect x="0" y="0" width="300" height="180" fill="white" stroke="#ddd" stroke-width="1" />
    <text x="150" y="20" font-family="Arial, sans-serif" font-size="14" text-anchor="middle" fill="#333">Queue Depth Over Time</text>
    
    <!-- Chart Axes -->
    <line x1="40" y1="40" x2="40" y2="160" stroke="#999" stroke-width="1" />
    <line x1="40" y1="160" x2="280" y2="160" stroke="#999" stroke-width="1" />
    
    <!-- Chart Data -->
    <polyline points="40,140 80,130 120,120 160,90 200,40 240,30 280,20" fill="none" stroke="#FF5722" stroke-width="2" />
    <circle cx="200" cy="40" r="5" fill="#d32f2f" />
    <circle cx="240" cy="30" r="5" fill="#d32f2f" />
    <circle cx="280" cy="20" r="5" fill="#d32f2f" />
    
    <!-- Warning Line -->
    <line x1="40" y1="60" x2="280" y2="60" stroke="#FFC107" stroke-width="1" stroke-dasharray="5,5" />
    <text x="290" y="65" font-family="Arial, sans-serif" font-size="10" fill="#FFC107">Warning (1000)</text>
  </g>
  
  <!-- Message Processing Rate -->
  <g transform="translate(400, 80)">
    <rect x="0" y="0" width="300" height="180" fill="white" stroke="#ddd" stroke-width="1" />
    <text x="150" y="20" font-family="Arial, sans-serif" font-size="14" text-anchor="middle" fill="#333">Message Processing Rate (msg/s)</text>
    
    <!-- Chart Axes -->
    <line x1="40" y1="40" x2="40" y2="160" stroke="#999" stroke-width="1" />
    <line x1="40" y1="160" x2="280" y2="160" stroke="#999" stroke-width="1" />
    
    <!-- Chart Data -->
    <polyline points="40,80 80,85 120,90 160,120 200,140 240,145 280,150" fill="none" stroke="#2196F3" stroke-width="2" />
    <circle cx="160" cy="120" r="5" fill="#d32f2f" />
    <circle cx="200" cy="140" r="5" fill="#d32f2f" />
  </g>
  
  <!-- Dead Letter Queue -->
  <g transform="translate(50, 280)">
    <rect x="0" y="0" width="300" height="180" fill="white" stroke="#ddd" stroke-width="1" />
    <text x="150" y="20" font-family="Arial, sans-serif" font-size="14" text-anchor="middle" fill="#333">Dead Letter Queue Messages</text>
    
    <!-- DLQ Table -->
    <rect x="20" y="40" width="260" height="120" fill="#fff" stroke="#ddd" stroke-width="1" />
    <text x="30" y="60" font-family="Arial, sans-serif" font-size="10" fill="#d32f2f">Error: Message format invalid (15)</text>
    <text x="30" y="80" font-family="Arial, sans-serif" font-size="10" fill="#d32f2f">Error: Connection timeout (8)</text>
    <text x="30" y="100" font-family="Arial, sans-serif" font-size="10" fill="#d32f2f">Error: Queue full (12)</text>
    <text x="30" y="120" font-family="Arial, sans-serif" font-size="10" fill="#d32f2f">Error: Processing failure (5)</text>
  </g>
  
  <!-- Connection Status -->
  <g transform="translate(400, 280)">
    <rect x="0" y="0" width="300" height="180" fill="white" stroke="#ddd" stroke-width="1" />
    <text x="150" y="20" font-family="Arial, sans-serif" font-size="14" text-anchor="middle" fill="#333">Connection Status</text>
    
    <!-- Status Indicators -->
    <circle cx="50" cy="60" r="8" fill="#d32f2f" />
    <text x="70" y="65" font-family="Arial, sans-serif" font-size="12" fill="#333">Producer Connection</text>
    
    <circle cx="50" cy="90" r="8" fill="#FFC107" />
    <text x="70" y="95" font-family="Arial, sans-serif" font-size="12" fill="#333">Consumer Connection</text>
    
    <circle cx="50" cy="120" r="8" fill="#4CAF50" />
    <text x="70" y="125" font-family="Arial, sans-serif" font-size="12" fill="#333">Broker Connection</text>
    
    <!-- Connection Details -->
    <text x="40" y="150" font-family="Arial, sans-serif" font-size="10" fill="#666">Last Error: Connection refused (10:15:30)</text>
  </g>
</svg> 