<?xml version="1.0" encoding="UTF-8" standalone="no"?>
<svg xmlns="http://www.w3.org/2000/svg" width="800" height="500" viewBox="0 0 800 500">
  <!-- Background -->
  <rect width="800" height="500" fill="#f8f9fa" />
  
  <!-- Title -->
  <text x="400" y="30" font-family="Arial, sans-serif" font-size="20" font-weight="bold" text-anchor="middle" fill="#333">JVM Threads Dashboard</text>
  
  <!-- Thread Count Chart -->
  <g transform="translate(50, 80)">
    <rect x="0" y="0" width="300" height="180" fill="white" stroke="#ddd" stroke-width="1" />
    <text x="150" y="20" font-family="Arial, sans-serif" font-size="14" text-anchor="middle" fill="#333">Thread Count</text>
    
    <!-- Chart Axes -->
    <line x1="40" y1="40" x2="40" y2="160" stroke="#999" stroke-width="1" />
    <line x1="40" y1="160" x2="280" y2="160" stroke="#999" stroke-width="1" />
    
    <!-- Chart Data -->
    <polyline points="40,120 80,110 120,100 160,95 200,85 240,75 280,65" fill="none" stroke="#0066cc" stroke-width="2" />
    
    <!-- Annotation -->
    <rect x="80" y="70" width="100" height="40" rx="5" ry="5" fill="#ffebee" stroke="#d32f2f" stroke-width="1" opacity="0.7" />
    <text x="130" y="90" font-family="Arial, sans-serif" font-size="10" text-anchor="middle" fill="#d32f2f">Thread count</text>
    <text x="130" y="105" font-family="Arial, sans-serif" font-size="10" text-anchor="middle" fill="#d32f2f">increasing steadily</text>
  </g>
  
  <!-- Thread Stack Usage Chart -->
  <g transform="translate(400, 80)">
    <rect x="0" y="0" width="300" height="180" fill="white" stroke="#ddd" stroke-width="1" />
    <text x="150" y="20" font-family="Arial, sans-serif" font-size="14" text-anchor="middle" fill="#333">Thread Stack Usage (MB)</text>
    
    <!-- Chart Axes -->
    <line x1="40" y1="40" x2="40" y2="160" stroke="#999" stroke-width="1" />
    <line x1="40" y1="160" x2="280" y2="160" stroke="#999" stroke-width="1" />
    
    <!-- Chart Data -->
    <polyline points="40,140 80,135 120,130 160,120 200,100 240,70 280,40" fill="none" stroke="#0066cc" stroke-width="2" />
    <circle cx="240" cy="70" r="5" fill="#d32f2f" />
    <circle cx="280" cy="40" r="5" fill="#d32f2f" />
  </g>
  
  <!-- Thread State Distribution -->
  <g transform="translate(50, 280)">
    <rect x="0" y="0" width="300" height="180" fill="white" stroke="#ddd" stroke-width="1" />
    <text x="150" y="20" font-family="Arial, sans-serif" font-size="14" text-anchor="middle" fill="#333">Thread State Distribution</text>
    
    <!-- Pie Chart -->
    <g transform="translate(150, 100)">
      <!-- Runnable -->
      <path d="M0,0 L0,-70 A70,70 0 0,1 60.62,35 z" fill="#4caf50" />
      <text x="30" y="-35" font-family="Arial, sans-serif" font-size="10" text-anchor="middle" fill="white">30%</text>
      
      <!-- Waiting -->
      <path d="M0,0 L60.62,35 A70,70 0 0,1 -60.62,35 z" fill="#2196f3" />
      <text x="0" y="40" font-family="Arial, sans-serif" font-size="10" text-anchor="middle" fill="white">40%</text>
      
      <!-- Blocked -->
      <path d="M0,0 L-60.62,35 A70,70 0 0,1 -60.62,-35 z" fill="#f44336" />
      <text x="-45" y="0" font-family="Arial, sans-serif" font-size="10" text-anchor="middle" fill="white">20%</text>
      
      <!-- Timed Waiting -->
      <path d="M0,0 L-60.62,-35 A70,70 0 0,1 0,-70 z" fill="#ff9800" />
      <text x="-30" y="-35" font-family="Arial, sans-serif" font-size="10" text-anchor="middle" fill="white">10%</text>
    </g>
    
    <!-- Legend -->
    <rect x="20" y="160" width="10" height="10" fill="#4caf50" />
    <text x="35" y="170" font-family="Arial, sans-serif" font-size="10" fill="#333">Runnable</text>
    
    <rect x="100" y="160" width="10" height="10" fill="#2196f3" />
    <text x="115" y="170" font-family="Arial, sans-serif" font-size="10" fill="#333">Waiting</text>
    
    <rect x="180" y="160" width="10" height="10" fill="#f44336" />
    <text x="195" y="170" font-family="Arial, sans-serif" font-size="10" fill="#333">Blocked</text>
    
    <rect x="240" y="160" width="10" height="10" fill="#ff9800" />
    <text x="255" y="170" font-family="Arial, sans-serif" font-size="10" fill="#333">Timed Waiting</text>
  </g>
  
  <!-- Thread Memory Allocation -->
  <g transform="translate(400, 280)">
    <rect x="0" y="0" width="300" height="180" fill="white" stroke="#ddd" stroke-width="1" />
    <text x="150" y="20" font-family="Arial, sans-serif" font-size="14" text-anchor="middle" fill="#333">Thread Memory Allocation</text>
    
    <!-- Bar Chart -->
    <g transform="translate(40, 40)">
      <!-- BatchProcessor Thread -->
      <rect x="0" y="0" width="220" height="25" fill="#ffcdd2" />
      <text x="5" y="17" font-family="Arial, sans-serif" font-size="10" fill="#333">BatchProcessor-1</text>
      <text x="215" y="17" font-family="Arial, sans-serif" font-size="10" text-anchor="end" fill="#333">1.2 GB</text>
      
      <!-- HTTP Thread 1 -->
      <rect x="0" y="30" width="80" height="25" fill="#e8f5e9" />
      <text x="5" y="47" font-family="Arial, sans-serif" font-size="10" fill="#333">http-nio-8080-exec-1</text>
      <text x="75" y="47" font-family="Arial, sans-serif" font-size="10" text-anchor="end" fill="#333">0.4 GB</text>
      
      <!-- HTTP Thread 2 -->
      <rect x="0" y="60" width="70" height="25" fill="#e8f5e9" />
      <text x="5" y="77" font-family="Arial, sans-serif" font-size="10" fill="#333">http-nio-8080-exec-2</text>
      <text x="65" y="77" font-family="Arial, sans-serif" font-size="10" text-anchor="end" fill="#333">0.35 GB</text>
      
      <!-- GC Thread -->
      <rect x="0" y="90" width="40" height="25" fill="#e3f2fd" />
      <text x="5" y="107" font-family="Arial, sans-serif" font-size="10" fill="#333">GC Task</text>
      <text x="35" y="107" font-family="Arial, sans-serif" font-size="10" text-anchor="end" fill="#333">0.2 GB</text>
      
      <!-- Other Threads -->
      <rect x="0" y="120" width="60" height="25" fill="#e3f2fd" />
      <text x="5" y="137" font-family="Arial, sans-serif" font-size="10" fill="#333">Other Threads</text>
      <text x="55" y="137" font-family="Arial, sans-serif" font-size="10" text-anchor="end" fill="#333">0.3 GB</text>
    </g>
    
    <!-- Annotation -->
    <rect x="180" y="35" width="100" height="40" rx="5" ry="5" fill="#ffebee" stroke="#d32f2f" stroke-width="1" opacity="0.7" />
    <text x="230" y="55" font-family="Arial, sans-serif" font-size="10" text-anchor="middle" fill="#d32f2f">Large objects in</text>
    <text x="230" y="70" font-family="Arial, sans-serif" font-size="10" text-anchor="middle" fill="#d32f2f">BatchProcessor thread</text>
  </g>
</svg>
