<?xml version="1.0" encoding="UTF-8" standalone="no"?>
<svg xmlns="http://www.w3.org/2000/svg" width="800" height="500" viewBox="0 0 800 500">
  <!-- Background -->
  <rect width="800" height="500" fill="#f8f9fa" />
  
  <!-- Title -->
  <text x="400" y="30" font-family="Arial, sans-serif" font-size="20" font-weight="bold" text-anchor="middle" fill="#333">JVM Memory Dashboard</text>
  
  <!-- Heap Usage Chart -->
  <g transform="translate(50, 80)">
    <rect x="0" y="0" width="300" height="180" fill="white" stroke="#ddd" stroke-width="1" />
    <text x="150" y="20" font-family="Arial, sans-serif" font-size="14" text-anchor="middle" fill="#333">Heap Memory Usage (GB)</text>
    
    <!-- Chart Axes -->
    <line x1="40" y1="40" x2="40" y2="160" stroke="#999" stroke-width="1" />
    <line x1="40" y1="160" x2="280" y2="160" stroke="#999" stroke-width="1" />
    
    <!-- Max Heap Line -->
    <line x1="40" y1="45" x2="280" y2="45" stroke="#d32f2f" stroke-width="1" stroke-dasharray="5,5" />
    <text x="60" y="40" font-family="Arial, sans-serif" font-size="10" fill="#d32f2f">Max Heap (4GB)</text>
    
    <!-- Chart Data -->
    <polyline points="40,140 80,130 120,110 160,90 200,70 240,50 280,45" fill="none" stroke="#0066cc" stroke-width="2" />
    <circle cx="240" cy="50" r="5" fill="#d32f2f" />
    <circle cx="280" cy="45" r="5" fill="#d32f2f" />
    
    <!-- Annotation -->
    <rect x="200" y="25" width="100" height="40" rx="5" ry="5" fill="#ffebee" stroke="#d32f2f" stroke-width="1" opacity="0.7" />
    <text x="250" y="45" font-family="Arial, sans-serif" font-size="10" text-anchor="middle" fill="#d32f2f">Heap usage</text>
    <text x="250" y="60" font-family="Arial, sans-serif" font-size="10" text-anchor="middle" fill="#d32f2f">approaching maximum</text>
  </g>
  
  <!-- GC Activity Chart -->
  <g transform="translate(400, 80)">
    <rect x="0" y="0" width="300" height="180" fill="white" stroke="#ddd" stroke-width="1" />
    <text x="150" y="20" font-family="Arial, sans-serif" font-size="14" text-anchor="middle" fill="#333">GC Pause Time (sec/5min)</text>
    
    <!-- Chart Axes -->
    <line x1="40" y1="40" x2="40" y2="160" stroke="#999" stroke-width="1" />
    <line x1="40" y1="160" x2="280" y2="160" stroke="#999" stroke-width="1" />
    
    <!-- Chart Data -->
    <polyline points="40,155 80,150 120,140 160,120 200,90 240,60 280,40" fill="none" stroke="#d32f2f" stroke-width="2" />
    <circle cx="200" cy="90" r="5" fill="#d32f2f" />
    <circle cx="240" cy="60" r="5" fill="#d32f2f" />
    <circle cx="280" cy="40" r="5" fill="#d32f2f" />
    
    <!-- Annotation -->
    <rect x="120" y="60" width="120" height="40" rx="5" ry="5" fill="#ffebee" stroke="#d32f2f" stroke-width="1" opacity="0.7" />
    <text x="180" y="80" font-family="Arial, sans-serif" font-size="10" text-anchor="middle" fill="#d32f2f">Increasing frequency</text>
    <text x="180" y="95" font-family="Arial, sans-serif" font-size="10" text-anchor="middle" fill="#d32f2f">of full GC events</text>
  </g>
  
  <!-- Memory Pools Chart -->
  <g transform="translate(50, 280)">
    <rect x="0" y="0" width="300" height="180" fill="white" stroke="#ddd" stroke-width="1" />
    <text x="150" y="20" font-family="Arial, sans-serif" font-size="14" text-anchor="middle" fill="#333">Memory Pools (MB)</text>
    
    <!-- Chart Data - Stacked Bar Chart -->
    <g transform="translate(60, 40)">
      <!-- Time 1 -->
      <rect x="0" y="0" width="30" height="20" fill="#bbdefb" />
      <rect x="0" y="20" width="30" height="15" fill="#90caf9" />
      <rect x="0" y="35" width="30" height="10" fill="#64b5f6" />
      <rect x="0" y="45" width="30" height="5" fill="#42a5f5" />
      
      <!-- Time 2 -->
      <rect x="40" y="0" width="30" height="25" fill="#bbdefb" />
      <rect x="40" y="25" width="30" height="20" fill="#90caf9" />
      <rect x="40" y="45" width="30" height="15" fill="#64b5f6" />
      <rect x="40" y="60" width="30" height="10" fill="#42a5f5" />
      
      <!-- Time 3 -->
      <rect x="80" y="0" width="30" height="30" fill="#bbdefb" />
      <rect x="80" y="30" width="30" height="25" fill="#90caf9" />
      <rect x="80" y="55" width="30" height="20" fill="#64b5f6" />
      <rect x="80" y="75" width="30" height="15" fill="#42a5f5" />
      
      <!-- Time 4 -->
      <rect x="120" y="0" width="30" height="35" fill="#bbdefb" />
      <rect x="120" y="35" width="30" height="30" fill="#90caf9" />
      <rect x="120" y="65" width="30" height="25" fill="#64b5f6" />
      <rect x="120" y="90" width="30" height="20" fill="#42a5f5" />
      
      <!-- Time 5 -->
      <rect x="160" y="0" width="30" height="40" fill="#ffcdd2" />
      <rect x="160" y="40" width="30" height="35" fill="#ef9a9a" />
      <rect x="160" y="75" width="30" height="30" fill="#e57373" />
      <rect x="160" y="105" width="30" height="25" fill="#ef5350" />
    </g>
    
    <!-- Legend -->
    <rect x="60" y="150" width="10" height="10" fill="#bbdefb" />
    <text x="75" y="160" font-family="Arial, sans-serif" font-size="10" fill="#333">Eden Space</text>
    
    <rect x="140" y="150" width="10" height="10" fill="#90caf9" />
    <text x="155" y="160" font-family="Arial, sans-serif" font-size="10" fill="#333">Survivor Space</text>
    
    <rect x="220" y="150" width="10" height="10" fill="#64b5f6" />
    <text x="235" y="160" font-family="Arial, sans-serif" font-size="10" fill="#333">Old Gen</text>
  </g>
  
  <!-- GC Events Timeline -->
  <g transform="translate(400, 280)">
    <rect x="0" y="0" width="300" height="180" fill="white" stroke="#ddd" stroke-width="1" />
    <text x="150" y="20" font-family="Arial, sans-serif" font-size="14" text-anchor="middle" fill="#333">GC Events Timeline</text>
    
    <!-- Timeline -->
    <line x1="40" y1="80" x2="280" y2="80" stroke="#999" stroke-width="1" />
    
    <!-- Time Markers -->
    <line x1="40" y1="75" x2="40" y2="85" stroke="#999" stroke-width="1" />
    <text x="40" y="95" font-family="Arial, sans-serif" font-size="10" text-anchor="middle" fill="#333">10:00</text>
    
    <line x1="100" y1="75" x2="100" y2="85" stroke="#999" stroke-width="1" />
    <text x="100" y="95" font-family="Arial, sans-serif" font-size="10" text-anchor="middle" fill="#333">10:15</text>
    
    <line x1="160" y1="75" x2="160" y2="85" stroke="#999" stroke-width="1" />
    <text x="160" y="95" font-family="Arial, sans-serif" font-size="10" text-anchor="middle" fill="#333">10:30</text>
    
    <line x1="220" y1="75" x2="220" y2="85" stroke="#999" stroke-width="1" />
    <text x="220" y="95" font-family="Arial, sans-serif" font-size="10" text-anchor="middle" fill="#333">10:40</text>
    
    <line x1="280" y1="75" x2="280" y2="85" stroke="#999" stroke-width="1" />
    <text x="280" y="95" font-family="Arial, sans-serif" font-size="10" text-anchor="middle" fill="#333">10:45</text>
    
    <!-- GC Events -->
    <circle cx="50" cy="80" r="3" fill="#90caf9" />
    <circle cx="60" cy="80" r="3" fill="#90caf9" />
    <circle cx="70" cy="80" r="3" fill="#90caf9" />
    
    <circle cx="110" cy="80" r="3" fill="#90caf9" />
    <circle cx="120" cy="80" r="3" fill="#90caf9" />
    <circle cx="125" cy="80" r="3" fill="#90caf9" />
    <circle cx="130" cy="80" r="3" fill="#90caf9" />
    <circle cx="135" cy="80" r="3" fill="#90caf9" />
    
    <circle cx="165" cy="80" r="4" fill="#64b5f6" />
    <circle cx="170" cy="80" r="4" fill="#64b5f6" />
    <circle cx="175" cy="80" r="4" fill="#64b5f6" />
    <circle cx="180" cy="80" r="4" fill="#64b5f6" />
    <circle cx="185" cy="80" r="4" fill="#64b5f6" />
    <circle cx="190" cy="80" r="4" fill="#64b5f6" />
    
    <circle cx="225" cy="80" r="5" fill="#e57373" />
    <circle cx="230" cy="80" r="5" fill="#e57373" />
    <circle cx="235" cy="80" r="5" fill="#e57373" />
    <circle cx="240" cy="80" r="5" fill="#e57373" />
    <circle cx="245" cy="80" r="5" fill="#e57373" />
    <circle cx="250" cy="80" r="5" fill="#e57373" />
    <circle cx="255" cy="80" r="5" fill="#e57373" />
    <circle cx="260" cy="80" r="5" fill="#e57373" />
    
    <!-- Legend -->
    <circle cx="60" y="120" r="3" fill="#90caf9" />
    <text x="75" y="123" font-family="Arial, sans-serif" font-size="10" fill="#333">Minor GC</text>
    
    <circle cx="160" y="120" r="4" fill="#64b5f6" />
    <text x="175" y="123" font-family="Arial, sans-serif" font-size="10" fill="#333">Major GC</text>
    
    <circle cx="240" y="120" r="5" fill="#e57373" />
    <text x="255" y="123" font-family="Arial, sans-serif" font-size="10" fill="#333">Full GC</text>
    
    <!-- OOM Event -->
    <line x1="260" y1="40" x2="260" y2="140" stroke="#d32f2f" stroke-width="2" stroke-dasharray="5,3" />
    <text x="260" y="150" font-family="Arial, sans-serif" font-size="10" text-anchor="middle" fill="#d32f2f">OutOfMemoryError</text>
  </g>
</svg>
